<svg xmlns="http://www.w3.org/2000/svg"><symbol id="001-arrows-1" viewBox="0 0 438.543 438.543"><path d="M407.42 159.029c3.62 3.616 7.898 5.428 12.847 5.428 2.282 0 4.668-.476 7.139-1.429 7.426-3.235 11.136-8.853 11.136-16.846V18.276c0-4.949-1.807-9.231-5.428-12.847-3.61-3.617-7.898-5.424-12.847-5.424H292.36c-7.991 0-13.607 3.805-16.848 11.419-3.23 7.423-1.902 13.99 4 19.698l41.111 41.112-101.352 101.355L117.917 72.231l41.112-41.112c5.901-5.708 7.232-12.275 3.999-19.698C159.789 3.807 154.175 0 146.182 0H18.276C13.324 0 9.041 1.809 5.425 5.426 1.808 9.042.001 13.324.001 18.273V146.18c0 7.996 3.809 13.61 11.419 16.846 2.285.948 4.57 1.429 6.855 1.429 4.948 0 9.229-1.812 12.847-5.427l41.112-41.109 101.354 101.354L72.234 320.622l-41.112-41.113c-5.711-5.903-12.275-7.231-19.702-4.001C3.806 278.749.001 284.364.001 292.362v127.906c0 4.948 1.807 9.229 5.424 12.847 3.619 3.614 7.902 5.421 12.851 5.421h127.906c7.996 0 13.61-3.806 16.846-11.416 3.234-7.427 1.903-13.99-3.999-19.705l-41.112-41.106L219.271 264.95l101.353 101.361-41.114 41.11c-5.899 5.708-7.228 12.279-3.997 19.698 3.237 7.617 8.856 11.423 16.851 11.423h127.907c4.948 0 9.232-1.813 12.847-5.428 3.613-3.613 5.42-7.898 5.42-12.847V292.362c0-7.994-3.709-13.613-11.136-16.851-7.802-3.23-14.462-1.903-19.985 4.004l-41.106 41.106-101.359-101.35L366.31 117.917l41.11 41.112z"/></symbol><symbol id="002-flash" viewBox="0 0 272.256 272.256"><path d="M235.096 103.563a10.228 10.228 0 0 0-9.342-6.063h-76.95l31.652-83.653A10.228 10.228 0 0 0 170.891 0H94.762a10.228 10.228 0 0 0-9.566 6.608l-48.26 127.544A10.228 10.228 0 0 0 46.502 148l85.399-.513L86.78 267.492a3.525 3.525 0 0 0 5.92 3.596l140.662-156.523a10.231 10.231 0 0 0 1.734-11.002z"/></symbol><symbol id="003-favorite-heart-button" viewBox="0 0 510 510"><path d="M255 489.6l-35.7-35.7C86.7 336.6 0 257.55 0 160.65 0 81.6 61.2 20.4 140.25 20.4c43.35 0 86.7 20.4 114.75 53.55C283.05 40.8 326.4 20.4 369.75 20.4 448.8 20.4 510 81.6 510 160.65c0 96.9-86.7 175.95-219.3 293.25L255 489.6z"/></symbol><symbol id="004-u-shaped-thick-magnet" viewBox="0 0 438.533 438.533"><path d="M18.275 146.178h109.632c4.95 0 9.233-1.809 12.85-5.426 3.615-3.616 5.424-7.898 5.424-12.845V18.271c0-4.952-1.809-9.231-5.42-12.847C137.14 1.807 132.857 0 127.911 0H18.275C13.323 0 9.04 1.807 5.424 5.424 1.807 9.04 0 13.322 0 18.271v109.636c0 4.947 1.807 9.229 5.424 12.845 3.619 3.617 7.902 5.426 12.851 5.426zM433.112 5.424C429.495 1.807 425.214 0 420.266 0H310.627c-4.945 0-9.227 1.807-12.848 5.424-3.61 3.615-5.42 7.898-5.42 12.847v109.636c0 4.947 1.81 9.229 5.42 12.845 3.621 3.617 7.902 5.426 12.848 5.426h109.639c4.948 0 9.229-1.809 12.847-5.426 3.614-3.616 5.421-7.898 5.421-12.845V18.271c-.001-4.952-1.805-9.231-5.422-12.847zM420.266 182.72H310.633c-4.944 0-9.232 1.809-12.847 5.426-3.617 3.615-5.427 7.898-5.427 12.847v36.547c0 9.896-2.231 18.463-6.708 25.693-4.473 7.234-9.564 12.662-15.272 16.279-5.709 3.617-12.468 6.472-20.273 8.559-7.803 2.098-13.894 3.341-18.268 3.721-4.38.373-8.569.567-12.564.567s-8.182-.194-12.559-.567c-4.377-.38-10.467-1.623-18.271-3.721-7.804-2.087-14.565-4.944-20.273-8.559-5.711-3.617-10.804-9.048-15.275-16.279-4.475-7.23-6.711-15.797-6.711-25.693v-36.547c0-4.948-1.809-9.231-5.424-12.847-3.621-3.617-7.903-5.426-12.85-5.426H18.275c-4.952 0-9.235 1.809-12.851 5.426C1.807 191.761 0 196.044 0 200.992v36.547c0 38.26 9.373 72.707 28.122 103.35 18.748 30.648 44.827 54.583 78.229 71.811 33.407 17.22 71.046 25.834 112.919 25.834 41.882 0 79.516-8.614 112.919-25.834 33.4-17.228 59.478-41.162 78.224-71.811 18.754-30.643 28.12-65.09 28.12-103.35v-36.547c0-4.948-1.8-9.231-5.421-12.847-3.61-3.617-7.894-5.425-12.846-5.425z"/></symbol><symbol id="005-double-angle-pointing-to-right" viewBox="0 0 284.936 284.936"><path d="M277.515 135.9L144.464 2.857C142.565.955 140.375 0 137.9 0c-2.472 0-4.659.955-6.562 2.857l-14.277 14.275c-1.903 1.903-2.853 4.089-2.853 6.567 0 2.478.95 4.664 2.853 6.567L229.268 142.47 117.062 254.677c-1.903 1.903-2.853 4.093-2.853 6.564 0 2.477.95 4.667 2.853 6.57l14.277 14.271c1.902 1.905 4.089 2.854 6.562 2.854 2.478 0 4.665-.951 6.563-2.854l133.051-133.044c1.902-1.902 2.851-4.093 2.851-6.567s-.949-4.664-2.851-6.571z"/><path d="M170.732 142.471c0-2.474-.947-4.665-2.857-6.571L34.833 2.857C32.931.955 30.741 0 28.267 0S23.602.955 21.7 2.857L7.426 17.133C5.52 19.036 4.57 21.222 4.57 23.7c0 2.478.95 4.664 2.856 6.567L119.63 142.471 7.426 254.677c-1.906 1.903-2.856 4.093-2.856 6.564 0 2.477.95 4.667 2.856 6.57l14.273 14.271c1.903 1.905 4.093 2.854 6.567 2.854s4.664-.951 6.567-2.854l133.042-133.044c1.91-1.902 2.857-4.093 2.857-6.567z"/></symbol><symbol id="006-add" viewBox="0 0 480 480"><path d="M424 184H296V56c0-30.928-25.072-56-56-56s-56 25.072-56 56v128H56c-30.928 0-56 25.072-56 56s25.072 56 56 56h128v128c0 30.928 25.072 56 56 56s56-25.072 56-56V296h128c30.928 0 56-25.072 56-56s-25.072-56-56-56zm0 96H288a8 8 0 0 0-8 8v136c0 22.091-17.909 40-40 40s-40-17.909-40-40V288a8 8 0 0 0-8-8H56c-22.091 0-40-17.909-40-40s17.909-40 40-40h136a8 8 0 0 0 8-8V56c0-22.091 17.909-40 40-40s40 17.909 40 40v136a8 8 0 0 0 8 8h136c22.091 0 40 17.909 40 40s-17.909 40-40 40z"/></symbol><symbol id="007-social-vimeo-in-a-circle-logo" viewBox="0 0 97.75 97.75"><path d="M48.875 0C21.883 0 0 21.882 0 48.875S21.883 97.75 48.875 97.75 97.75 75.868 97.75 48.875 75.867 0 48.875 0zm34.553 32.795c-.306 6.734-5.014 15.959-14.109 27.666-9.402 12.229-17.36 18.344-23.873 18.344-4.029 0-7.44-3.723-10.229-11.173-1.861-6.827-3.724-13.651-5.584-20.479-2.067-7.446-4.287-11.174-6.663-11.174-.516 0-2.33 1.091-5.431 3.261l-3.252-4.195c3.411-2.997 6.78-6 10.093-9.006 4.555-3.933 7.971-6.004 10.252-6.214 5.383-.517 8.697 3.167 9.941 11.044 1.344 8.504 2.273 13.793 2.795 15.861 1.551 7.055 3.26 10.579 5.122 10.579 1.449 0 3.627-2.291 6.525-6.863 2.896-4.577 4.448-8.061 4.657-10.448.413-3.951-1.14-5.93-4.657-5.93-1.658 0-3.367.378-5.121 1.135 3.399-11.138 9.895-16.551 19.484-16.245 7.11.209 10.459 4.821 10.05 13.837z"/></symbol><symbol id="008-google-plus" viewBox="0 0 612 612"><path d="M296.069 247.387c0-31.295-18.694-80.033-54.802-80.033-11.294 0-23.479 5.647-30.461 14.382-7.399 9.124-9.569 20.863-9.569 32.186 0 29.125 16.969 77.418 54.384 77.418 10.877 0 22.616-5.23 29.599-12.185 9.987-10.042 10.849-23.951 10.849-31.768z"/><path d="M612 306C612 137.004 474.995 0 306 0 137.004 0 0 137.004 0 306c0 168.995 137.004 306 306 306 168.995 0 306-137.005 306-306zm-211.836-58.835h23.535v47.068h47.068v23.535h-47.068v47.068h-23.535v-47.068h-47.068v-23.535h47.068v-47.068zM141.233 422.252c0-15.661 7.817-37.832 33.493-53.077 26.956-16.523 63.509-18.693 83.065-20.001-6.092-7.845-13.047-16.106-13.047-29.57 0-7.4 2.17-11.739 4.34-16.97-4.785.417-9.569.863-13.937.863-46.095 0-72.188-34.383-72.188-68.294 0-20.001 9.125-42.2 27.846-58.279C215.619 156.478 245.189 153 268.668 153h89.603l-27.846 15.634h-26.956c9.986 8.262 30.878 25.676 30.878 58.724 0 32.186-18.276 47.402-36.525 61.756-5.647 5.647-12.184 11.739-12.184 21.309s6.537 14.8 11.294 18.694l15.662 12.184c19.139 16.079 36.525 30.879 36.525 60.922 0 40.865-39.585 82.203-114.388 82.203-63.037.028-93.498-29.988-93.498-62.174z"/><path d="M272.59 361.775c-3.477-.417-5.647-.417-9.987-.417-3.922 0-27.401.862-45.677 6.982-9.569 3.477-37.416 13.909-37.416 44.787s30.016 53.049 76.556 53.049c41.755 0 63.926-20.001 63.926-46.957 0-22.198-14.326-33.937-47.402-57.444z"/></symbol><symbol id="009-twitter-logo-button" viewBox="0 0 49.652 49.652"><path d="M24.826 0C11.137 0 0 11.137 0 24.826c0 13.688 11.137 24.826 24.826 24.826 13.688 0 24.826-11.138 24.826-24.826C49.652 11.137 38.516 0 24.826 0zm11.075 19.144c.011.246.017.494.017.742 0 7.551-5.746 16.255-16.259 16.255-3.227 0-6.231-.943-8.759-2.565.447.053.902.08 1.363.08 2.678 0 5.141-.914 7.097-2.446a5.72 5.72 0 0 1-5.338-3.969 5.76 5.76 0 0 0 2.58-.096 5.715 5.715 0 0 1-4.583-5.603l.001-.072a5.69 5.69 0 0 0 2.587.714 5.71 5.71 0 0 1-2.541-4.755c0-1.048.281-2.03.773-2.874a16.225 16.225 0 0 0 11.777 5.972 5.707 5.707 0 0 1-.147-1.303 5.714 5.714 0 0 1 9.884-3.91 11.406 11.406 0 0 0 3.63-1.387 5.74 5.74 0 0 1-2.516 3.162 11.36 11.36 0 0 0 3.282-.899 11.494 11.494 0 0 1-2.848 2.954z"/></symbol><symbol id="010-facebook-logo" viewBox="0 0 512 512"><path d="M256 .994c141.385 0 256 114.615 256 256 0 130.547-97.719 238.265-224 254.013V320.994h88l8-64h-96v-32c0-17.673 14.326-32 32-32h64v-64h-64c-53.02 0-96 42.98-96 96v32h-48v64h48v190.013C97.719 495.258 0 387.541 0 256.994c0-141.385 114.615-256 256-256z"/></symbol><symbol id="011-vector" viewBox="0 0 512 512"><path d="M0 239.304h66.783v66.783H0zM445.217 239.304H512v66.783h-66.783zM222.609 16.696v66.782h66.782V16.696zM256 300.522c-9.206 0-16.696 7.49-16.696 16.696 0 9.206 7.49 16.696 16.696 16.696s16.696-7.49 16.696-16.696c0-9.207-7.49-16.696-16.696-16.696z"/><path d="M313.197 194.031c-11.907-27.754-21.96-55.732-29.149-77.162h-11.352v153.133c19.433 6.892 33.391 25.45 33.391 47.215 0 27.618-22.468 50.087-50.087 50.087s-50.087-22.469-50.087-50.087c0-21.766 13.959-40.322 33.391-47.215V116.87h-11.35c-7.161 21.348-17.17 49.205-29.039 76.901-33.732 78.708-61.625 106.751-76.481 106.751v33.391c25.666 0 61.217 29.01 61.217 83.478h144.696c0-54.468 35.552-83.478 61.217-83.478v-33.391c-14.832 0-42.684-27.975-76.367-106.491zM155.826 450.783h200.348v44.522H155.826zM42.503 33.391c-3.922-3.453-9.052-5.565-14.677-5.565-12.275 0-22.261 9.986-22.261 22.261 0 12.27 9.984 22.256 22.255 22.261h.006c5.468 0 10.623-1.979 14.689-5.565h91.372c-16.983 10.108-32.786 22.384-47.1 36.698-28.914 28.912-49.546 63.888-60.664 102.432h35.095C81.851 146.254 129.56 98.564 189.217 77.931v-44.54H42.503zM484.168 72.348h.006a22.122 22.122 0 0 0 15.742-6.519 22.11 22.11 0 0 0 6.519-15.742c0-12.275-9.986-22.261-22.261-22.261-5.624 0-10.752 2.113-14.675 5.565H322.783v44.541c59.658 20.634 107.366 68.322 127.998 127.981h35.095c-11.117-38.546-31.751-73.52-60.663-102.432-14.314-14.314-30.118-26.591-47.1-36.698H469.5c3.922 3.45 9.047 5.563 14.668 5.565z"/></symbol><symbol id="012-clipboard-with-a-list" viewBox="0 0 485.69 485.69"><path d="M410.428 34.738h-76.405l5.155 23.852c.634 2.961.603 5.934.271 8.859h54.621V452.98H91.588V67.449h54.637c-.332-2.941-.348-5.914.285-8.891l5.156-23.82H75.248c-9.031 0-16.34 7.324-16.34 16.354v418.243c0 9.016 7.309 16.354 16.34 16.354h335.18c9.031 0 16.354-7.341 16.354-16.354V51.093c.001-9.031-7.323-16.355-16.354-16.355z"/><path d="M355.568 152.949h-111.71c-9.047 0-16.355 7.324-16.355 16.34 0 9.035 7.309 16.355 16.355 16.355h111.71c9.047 0 16.354-7.32 16.354-16.355.002-9.016-7.307-16.34-16.354-16.34zM355.568 253.254h-111.71c-9.047 0-16.355 7.323-16.355 16.354 0 9.021 7.309 16.357 16.355 16.357h111.71c9.047 0 16.354-7.34 16.354-16.357.002-9.031-7.307-16.354-16.354-16.354zM119.556 156.792c-6.898 5.82-7.786 16.137-1.965 23.047l23.855 28.27a16.322 16.322 0 0 0 13.699 5.758 16.34 16.34 0 0 0 12.703-7.719l42.914-69.477c4.746-7.688 2.375-17.75-5.312-22.492-7.688-4.777-17.75-2.375-22.497 5.313l-31.066 50.273-9.301-11.012c-5.823-6.91-16.119-7.797-23.03-1.961zM158.72 245.094c-13.554 0-24.535 10.978-24.535 24.517 0 13.543 10.98 24.52 24.535 24.52 13.543 0 24.52-10.977 24.52-24.52 0-13.541-10.977-24.517-24.52-24.517zM355.568 351.359h-111.71c-9.047 0-16.355 7.309-16.355 16.358 0 9.017 7.309 16.34 16.355 16.34h111.71c9.047 0 16.354-7.323 16.354-16.34.002-9.05-7.307-16.358-16.354-16.358zM158.72 343.199c-13.554 0-24.535 10.977-24.535 24.52 0 13.539 10.98 24.521 24.535 24.521 13.543 0 24.52-10.979 24.52-24.521 0-13.543-10.977-24.52-24.52-24.52zM173.463 75.613h138.73c3.401 0 6.613-1.521 8.746-4.176a11.155 11.155 0 0 0 2.229-9.43L311.686 8.859A11.235 11.235 0 0 0 300.708 0H184.963a11.242 11.242 0 0 0-10.977 8.859l-11.5 53.148c-.695 3.324.125 6.801 2.247 9.43a11.188 11.188 0 0 0 8.73 4.176z"/></symbol><symbol id="013-badge" viewBox="0 0 488.779 488.779"><path d="M434.539 221.226l-6-8.2c-6.6-9-6.7-21.2-.2-30.3l5.9-8.3c9-12.7 4.8-30.5-8.9-37.9l-9-4.8c-9.8-5.3-15.2-16.2-13.3-27.2l1.7-10.1c2.6-15.4-8.9-29.6-24.5-30.2l-10.2-.4c-11.1-.5-20.7-8-23.8-18.7l-2.8-9.8c-4.3-15-20.8-22.8-35.2-16.6l-9.4 4c-10.2 4.4-22.1 1.8-29.6-6.5l-6.8-7.6c-10.4-11.6-28.7-11.5-38.9.3l-6.7 7.7c-7.3 8.4-19.2 11.2-29.5 7l-9.4-3.9c-14.4-6-30.8 2.1-34.9 17.1l-2.7 9.8c-2.9 10.7-12.4 18.4-23.5 19.1l-10.2.6c-15.6.9-26.9 15.3-24 30.6l1.8 10c2 11-3.2 22-12.9 27.4l-8.9 5c-13.7 7.6-17.6 25.4-8.4 38l6 8.2c6.6 9 6.7 21.2.2 30.3l-5.9 8.3c-9 12.7-4.8 30.5 8.9 37.9l9 4.8c9.8 5.3 15.2 16.2 13.3 27.2l-1.7 10.1c-2.6 15.4 8.9 29.6 24.5 30.2l10.2.4c11.1.5 20.7 8 23.8 18.7l2.8 9.8c4.3 15 20.8 22.8 35.2 16.6l9.4-4c10.2-4.4 22.1-1.8 29.6 6.5l6.8 7.6c10.4 11.6 28.7 11.5 38.9-.3l6.7-7.7c7.3-8.4 19.2-11.2 29.5-7l9.4 3.9c14.4 6 30.8-2.1 34.9-17.1l2.7-9.8c2.9-10.7 12.4-18.4 23.5-19.1l10.2-.6c15.6-.9 26.9-15.3 24-30.6l-1.8-10c-2-11 3.2-22 12.9-27.4l8.9-5c13.7-7.5 17.6-25.4 8.4-38zm-190.3 108c-71.7 0-130-58.3-130-130s58.3-130 130-130 130 58.3 130 130-58.3 130-130 130zM380.039 361.126l-4.5.3-2.2 8c-6.5 23.7-28.2 40.2-52.7 40.2-7.2 0-14.2-1.4-20.8-4.1l-7.6-3.2-2.4 2.8 37.1 67.5c2.2 3.9 6 6.7 10.4 7.5l44.7 8.3c7 1.3 14-2.5 16.7-9.2l16.9-42.2c1.7-4.2 1.4-8.9-.8-12.8l-34.8-63.1zM191.739 406.226c-6.9 3-14.1 4.5-21.6 4.5-24.2 0-45.8-16.2-52.5-39.4l-2.3-7.9-8-.3-33.6 61.2c-2.2 3.9-2.5 8.6-.8 12.8l16.9 42.2c2.7 6.7 9.7 10.5 16.7 9.2l44.7-8.3c4.4-.8 8.2-3.6 10.4-7.5l38.1-69.3-.3-.3-7.7 3.1z"/><path d="M319.139 191.926s7.5-11.7-2.2-20.6c-12.1-11.1-45-3.7-45-3.7-2.3.4-4.7.9-7.3 1.5 0 0-11.4 5.3 0-29.2s-7.6-39.9-15.6-39.9-5.3 17.1-5.3 17.1-17.1 47.1-33.4 59.6c-4.3 4.6-6.7 9.7-7.9 13.3-2.6-2.2-5.9-3.5-9.5-3.5h-21.9c-8.1 0-14.6 6.6-14.6 14.6v58.4c0 8.1 6.6 14.6 14.6 14.6h21.9c3 0 5.8-.9 8.1-2.5.5-.5 3.4-3.4 3.4-11.5v-36.3c0 1.4.2 45 25.3 47.7 9 .6 20.1 1.1 31.2.9 10.1.8 20.9.9 29.4-.9 29-6.2 21.8-26.4 21.8-26.4 15.7-11.8 6.8-26.5 6.8-26.5 13.8-14.5.2-26.7.2-26.7z"/></symbol><symbol id="014-handshake" viewBox="0 0 264.355 264.355"><path d="M259.081 76.652L205.269 22.84c-3.407-3.407-7.936-5.283-12.754-5.283s-9.347 1.876-12.753 5.283l-12.646 12.645a17.908 17.908 0 0 0-4.203 6.67l-59.168-10.593-.013-.002c-26.604-5.281-52.579 12.015-57.944 38.622l-2.729 13.537c-3.014 14.949 6.697 29.562 21.646 32.576 14.95 3.012 29.563-6.697 32.577-21.646l1.668-8.278 26.533 2.32 69.29 69.29 12.558 12.558a6.53 6.53 0 0 1 0 9.224 6.53 6.53 0 0 1-9.223 0l-33.639-33.639a6 6 0 0 0-8.485 8.485l33.639 33.639a6.48 6.48 0 0 1 1.91 4.612 6.477 6.477 0 0 1-1.91 4.611 6.53 6.53 0 0 1-9.223 0l-33.639-33.639a6 6 0 0 0-8.485 8.485l33.639 33.639a6.529 6.529 0 0 1 0 9.223 6.479 6.479 0 0 1-4.611 1.91 6.48 6.48 0 0 1-4.612-1.91l-33.639-33.639a6 6 0 0 0-8.485 8.485l33.639 33.639a6.53 6.53 0 0 1 0 9.224 6.53 6.53 0 0 1-9.223 0L25.961 113.867 10.243 98.149a6 6 0 0 0-8.485 8.485l15.718 15.718 17.105 17.105-9.429 9.429a16.24 16.24 0 0 0-4.788 11.559c0 4.367 1.7 8.472 4.788 11.559l3.077 3.077a16.225 16.225 0 0 0 9.925 4.707 16.22 16.22 0 0 0 4.707 9.924l3.077 3.078a16.264 16.264 0 0 0 9.923 4.695 16.218 16.218 0 0 0 4.709 9.936l3.077 3.077a16.225 16.225 0 0 0 9.925 4.707 16.225 16.225 0 0 0 4.707 9.925l3.077 3.077c3.187 3.187 7.373 4.78 11.559 4.78s8.372-1.593 11.559-4.78l9.429-9.429 22.595 22.595c3.499 3.499 8.15 5.425 13.097 5.425s9.599-1.927 13.097-5.425c3.314-3.314 5.196-7.667 5.387-12.321 4.655-.191 9.007-2.073 12.322-5.387 3.416-3.416 5.195-7.845 5.38-12.329 4.483-.185 8.913-1.964 12.328-5.379 3.416-3.416 5.195-7.845 5.38-12.329 4.484-.185 8.914-1.964 12.329-5.38 7.222-7.222 7.222-18.972 0-26.194l-8.315-8.315 30.423-30.423 21.156-21.156c7.031-7.033 7.031-18.476-.001-25.508zM33.637 163.518a4.351 4.351 0 0 1 0-6.147l8.842-8.842 9.224 9.224-8.842 8.842a4.352 4.352 0 0 1-6.147 0l-3.077-3.077zm17.709 17.709a4.35 4.35 0 0 1 0-6.146l8.842-8.842 9.224 9.224-8.841 8.842a4.352 4.352 0 0 1-6.147 0l-3.078-3.078zm17.708 17.709c-.821-.821-1.273-1.913-1.273-3.073s.452-2.252 1.273-3.073l8.842-8.842 9.223 9.223-8.842 8.842a4.352 4.352 0 0 1-6.146 0l-3.077-3.077zm26.933 20.786a4.352 4.352 0 0 1-6.147 0l-3.077-3.077a4.351 4.351 0 0 1 0-6.147l8.842-8.842 9.224 9.224-8.842 8.842zm103.029-74.469l-66.592-66.592a5.992 5.992 0 0 0-3.72-1.734L94.651 73.95a6.002 6.002 0 0 0-6.404 4.792l-2.729 13.537c-1.706 8.462-9.974 13.958-18.442 12.253a15.553 15.553 0 0 1-9.946-6.683 15.553 15.553 0 0 1-2.307-11.759l2.729-13.536c4.066-20.169 23.774-33.275 43.951-29.204.042.008.085.017.128.024l58.306 10.439 7.179 7.179 58.081 58.081-26.181 26.18zm51.579-51.579l-16.914 16.914L175.6 52.507c-1.14-1.14-1.768-2.656-1.768-4.269a6 6 0 0 1 1.768-4.269l12.646-12.646c1.14-1.14 2.656-1.768 4.268-1.768s3.128.628 4.269 1.768l53.812 53.812c1.14 1.14 1.768 2.656 1.768 4.269a6 6 0 0 1-1.768 4.27z"/><circle cx="236.071" cy="91.787" r="6"/></symbol><symbol id="015-arrows" viewBox="0 0 306 306"><path d="M94.35 0l-35.7 35.7L175.95 153 58.65 270.3l35.7 35.7 153-153z"/></symbol><symbol id="016-shopping-basket-button" viewBox="0 0 555.9 555.9"><path d="M413.1 212.925l-112.2-168.3c-5.101-5.1-12.75-10.2-20.4-10.2-7.65 0-15.3 2.55-20.4 10.2l-112.2 168.3H25.5c-15.3 0-25.5 10.2-25.5 25.5v7.65l63.75 237.15c5.1 20.4 25.5 38.25 48.45 38.25h331.5c22.95 0 43.35-15.3 48.45-38.25l63.75-237.15v-7.65c0-15.3-10.2-25.5-25.5-25.5H413.1zm-209.1 0l76.5-112.2 76.5 112.2H204zm76.5 204c-28.05 0-51-22.95-51-51s22.95-51 51-51 51 22.95 51 51-22.95 51-51 51z"/></symbol></svg>